<svg width="200" height="200" viewBox="0 0 200 200" fill="none" xmlns="http://www.w3.org/2000/svg">
<path d="M190 100C190 149.706 149.706 190 100 190C50.2944 190 10 149.706 10 100C10 50.2944 50.2944 10 100 10C149.706 10 190 50.2944 190 100ZM23.32 100C23.32 142.349 57.6508 176.68 100 176.68C142.349 176.68 176.68 142.349 176.68 100C176.68 57.6508 142.349 23.32 100 23.32C57.6508 23.32 23.32 57.6508 23.32 100Z" fill="white"/>
<path d="M138.388 91.0584C138.227 91.8629 137.22 92.142 136.668 91.535L128.729 82.8018C128.336 82.3699 127.658 82.3647 127.259 82.7905L115.69 95.1298C115.439 95.3978 115.358 95.7812 115.459 96.1343C115.811 97.3622 116 98.6592 116 100C116 107.732 109.732 114 102 114C94.268 114 88 107.732 88 100C88.0002 92.2685 94.2681 86.0004 102 86.0004C102.71 86.0004 103.408 86.0537 104.09 86.1559C104.43 86.2068 104.776 86.0962 105.01 85.8453L116.341 73.7066C116.708 73.3127 116.698 72.6982 116.317 72.3172L109.197 65.1973C108.659 64.6593 108.895 63.7412 109.626 63.5297L144.418 53.4582C145.139 53.2496 145.824 53.8792 145.677 54.6148L138.388 91.0584Z" fill="white"/>
<path d="M104.781 33.8765C108.885 33.8381 113.015 34.5912 116.863 36.0191C124.445 38.8327 130.962 42.0773 136.535 45.6522C137.248 46.1095 137.081 47.1814 136.267 47.4168L113.224 54.0877C113.035 54.1423 112.835 54.1399 112.647 54.0822C93.8283 48.297 71.4433 52.2681 58.9998 65.9986C36.2298 91.1242 46.9178 122.8 55.5154 136.256C55.7906 136.687 55.7021 137.247 55.3095 137.574L50.615 141.486C50.2554 141.786 49.7439 141.805 49.3834 141.506C24.6988 121.072 27.5045 34.6002 104.781 33.8765ZM151.273 60.5419C151.436 59.7271 152.466 59.4671 152.989 60.1128C174.584 86.775 164.603 121.822 152.612 141.034C152.29 141.55 151.589 141.643 151.129 141.244L137.567 129.49C137.231 129.199 137.129 128.719 137.312 128.313C143.511 114.59 145.668 102.705 144.889 92.6597C144.882 92.5673 144.887 92.475 144.905 92.3841L151.273 60.5419Z" fill="white"/>
<rect x="84" y="132" width="34" height="35" rx="2" fill="white"/>
</svg>
